<?xml version="1.0" encoding="utf-8"?>
<!-- Generator: Adobe Illustrator 20.0.0, SVG Export Plug-In . SVG Version: 6.00 Build 0)  -->
<svg version="1.1" id="Layer_1" xmlns="http://www.w3.org/2000/svg" xmlns:xlink="http://www.w3.org/1999/xlink" x="0px" y="0px"
	 viewBox="0 0 360 144" style="enable-background:new 0 0 360 144;" xml:space="preserve">
<style type="text/css">
	.st0{fill:#FFFFFF;}
	.st1{fill:url(#SVGID_1_);}
</style>
<g>
	<g>
		<path class="st0" d="M98.3,14.8v6.9H111c0.7,0,1,0.4,1,0.9v5.3c0,0.4-0.4,0.9-1,0.9H98.3v6.8h15.4c0.7,0,1.1,0.4,1.1,0.9v5.3
			c0,0.4-0.5,0.9-1.1,0.9H91.8c-0.6,0-1-0.5-1-0.9V8.5c0-0.5,0.4-0.9,1-0.9h21.9c0.7,0,1.1,0.4,1.1,0.9v5.4c0,0.4-0.5,0.9-1.1,0.9
			C113.7,14.8,98.3,14.8,98.3,14.8z"/>
		<path class="st0" d="M149.9,41.6c0,0.4-0.4,0.9-1.1,0.9h-5.5c-0.2,0-0.7-0.1-0.9-0.4l-14.4-21v20.5c0,0.4-0.5,0.9-1.1,0.9h-5.5
			c-0.7,0-1-0.5-1-0.9V8.5c0-0.5,0.3-0.9,1-0.9h5.5c0.3,0,0.7,0.1,0.9,0.3l14.5,21.2V8.5c0-0.5,0.5-0.9,1.1-0.9h5.4
			c0.7,0,1.1,0.4,1.1,0.9V41.6z"/>
		<path class="st0" d="M176.1,13.9c0,0.5-0.4,0.8-1.1,0.8h-5.8v27c0,0.4-0.4,0.9-1,0.9h-5.5c-0.7,0-1-0.5-1-0.9v-27h-5.9
			c-0.6,0-1.1-0.4-1.1-0.8v-5c0-0.5,0.5-0.9,1.1-0.9H175c0.7,0,1.1,0.5,1.1,0.9V13.9z"/>
		<path class="st0" d="M187.9,14.8v6.9h12.6c0.7,0,1,0.4,1,0.9v5.3c0,0.4-0.4,0.9-1,0.9h-12.6v6.8h15.4c0.7,0,1.1,0.4,1.1,0.9v5.3
			c0,0.4-0.5,0.9-1.1,0.9h-21.9c-0.6,0-1-0.5-1-0.9V8.5c0-0.5,0.4-0.9,1-0.9h21.9c0.7,0,1.1,0.4,1.1,0.9v5.4c0,0.4-0.5,0.9-1.1,0.9
			C203.3,14.8,187.9,14.8,187.9,14.8z"/>
		<path class="st0" d="M228.5,42.5c-0.3,0-0.9-0.3-1-0.5v0.1L219,28.6h-1.5v13.1c0,0.4-0.4,0.9-1.1,0.9h-5.6c-0.6,0-1.1-0.5-1.1-0.9
			V22.1c0-0.5,0.5-0.9,1.1-0.9h3.6c-0.7-1.1-1.4-2.1-2.1-3.2l-2.6-4.1V8.2c0-0.5,0.5-0.9,1.1-0.9H222c0,0,12.2,0,12.2,10.6
			c0,5.9-3.6,8.6-6.9,9.7l8.5,13.6v-0.1c0.5,0.7,0,1.4-0.8,1.4H228.5z M223.1,21.2c1.6-0.1,3.5-0.8,3.5-3.3c0-3.3-3.5-3.3-4.5-3.3
			h-3.2L223.1,21.2z"/>
	</g>
	<g>
		<path class="st0" d="M166.6,55.6c0,0.3-0.2,0.5-0.6,0.5h-3.5v16.3c0,0.2-0.2,0.5-0.6,0.5h-3.3c-0.4,0-0.6-0.3-0.6-0.5V56.1h-3.6
			c-0.4,0-0.6-0.2-0.6-0.5v-3.1c0-0.3,0.3-0.5,0.6-0.5h11.7c0.4,0,0.6,0.3,0.6,0.5L166.6,55.6L166.6,55.6z"/>
		<path class="st0" d="M184.8,51.9c0.3,0,0.6,0.2,0.6,0.5v20.1c0,0.2-0.3,0.5-0.6,0.5h-3.4c-0.4,0-0.6-0.3-0.6-0.5v-8.1h-7v8.1
			c0,0.2-0.3,0.5-0.6,0.5h-3.3c-0.4,0-0.6-0.3-0.6-0.5V52.4c0-0.3,0.3-0.5,0.6-0.5h3.3c0.4,0,0.6,0.2,0.6,0.5v7.7h7v-7.7
			c0-0.3,0.3-0.5,0.6-0.5H184.8z"/>
		<path class="st0" d="M194.6,56.2v4.2h7.7c0.4,0,0.6,0.2,0.6,0.5v3.2c0,0.2-0.2,0.5-0.6,0.5h-7.7v4.1h9.3c0.4,0,0.7,0.2,0.7,0.5
			v3.2c0,0.2-0.3,0.5-0.7,0.5h-13.3c-0.4,0-0.6-0.3-0.6-0.5v-20c0-0.3,0.2-0.5,0.6-0.5h13.3c0.4,0,0.7,0.2,0.7,0.5v3.3
			c0,0.2-0.3,0.5-0.7,0.5H194.6z"/>
	</g>
	<g>
		<path class="st0" d="M149.1,81.3c1,0,1.9,0.9,1.5,1.9l-20.8,54.3c-0.5,1.2-2.5,1.2-3,0l-20.9-54.3c-0.4-0.9,0.5-1.9,1.6-1.9
			C107.5,81.3,149.1,81.3,149.1,81.3z M128.3,111.7l7.1-20.1h-14.1L128.3,111.7z"/>
		<linearGradient id="SVGID_1_" gradientUnits="userSpaceOnUse" x1="154.2" y1="108.4" x2="196.3" y2="108.4">
			<stop  offset="0" style="stop-color:#FDF181"/>
			<stop  offset="0.3061" style="stop-color:#F0DD73"/>
			<stop  offset="0.7279" style="stop-color:#E2C764"/>
			<stop  offset="1" style="stop-color:#DDBF5E"/>
		</linearGradient>
		<path class="st1" d="M154.2,101.3c0-11.3,9.5-20.6,21.1-20.6c11.5,0,21,9.3,21,20.6c0,11.4-9.5,20.4-21,20.4
			C163.7,121.7,154.2,112.6,154.2,101.3z M194,134.8c0,0.6-0.7,1.3-1.7,1.3H158c-1,0-1.6-0.7-1.6-1.3v-8.6c0-0.7,0.6-1.4,1.6-1.4
			h34.3c1,0,1.7,0.7,1.7,1.4V134.8z M166.2,101.3c0,5.2,4.1,9.1,9.1,9.1s9-3.8,9-9.1c0-5.2-4-9.2-9-9.2S166.2,96.1,166.2,101.3z"/>
		<path class="st0" d="M205.8,83.3c0-0.7,0.7-1.3,1.6-1.3h8.5c1,0,1.6,0.6,1.6,1.3v51.6c0,0.6-0.6,1.3-1.6,1.3h-8.5
			c-0.9,0-1.6-0.7-1.6-1.3V83.3z"/>
		<path class="st0" d="M238.2,81.9c13.1,0,31.5,3.1,31.5,27c0,23-18.1,27.3-31.5,27.3h-8.5c-0.9,0-1.6-0.7-1.6-1.3V83.3
			c0-0.7,0.7-1.3,1.6-1.3L238.2,81.9L238.2,81.9z M239.9,125.3c6.3,0.2,18-1.6,18-16.4c0-12.4-7-16.2-16.6-16.2
			c-0.7,0-0.6-0.1-1.4,0V125.3z"/>
	</g>
	
		<image style="overflow:visible;" width="200" height="148" xlink:href="Screen Shot 2016-11-14 at 8.08.15 PM.png"  transform="matrix(0.5 0 0 0.5 467 116)">
	</image>
</g>
</svg>
