<?xml version="1.0" encoding="utf-8"?>
<!-- Generator: Adobe Illustrator 20.0.0, SVG Export Plug-In . SVG Version: 6.00 Build 0)  -->
<svg version="1.1" id="Layer_1" xmlns="http://www.w3.org/2000/svg" xmlns:xlink="http://www.w3.org/1999/xlink" x="0px" y="0px"
	 viewBox="0 0 360 93" style="enable-background:new 0 0 360 93;" xml:space="preserve">
<style type="text/css">
	.st0{fill:#979A9E;}
	.st1{fill:none;}
</style>
<g>
	<g>
		<g>
			<path class="st0" d="M35.3,21.5c0,0.3-0.3,0.6-0.7,0.6l-3.8,0.3l1.3,17.7c0,0.3-0.3,0.6-0.7,0.6L27.9,41c-0.4,0-0.7-0.2-0.7-0.5
				l-1.3-17.7L22,23c-0.4,0-0.7-0.2-0.7-0.5L21,19.3c0-0.3,0.2-0.6,0.6-0.6l12.6-1c0.4,0,0.7,0.2,0.8,0.5L35.3,21.5z"/>
		</g>
		<g>
			<path class="st0" d="M54.4,16.2c0.4,0,0.7,0.2,0.8,0.5l1.6,21.6c0,0.3-0.3,0.6-0.7,0.6l-3.6,0.3c-0.4,0-0.7-0.2-0.7-0.5l-0.6-8.4
				l-7.6,0.6l0.6,8.4c0,0.3-0.2,0.6-0.7,0.6l-3.6,0.3c-0.4,0-0.7-0.2-0.7-0.5L37.5,18c0-0.3,0.2-0.6,0.6-0.6l3.6-0.3
				c0.4,0,0.7,0.2,0.8,0.5l0.6,8.4l7.6-0.6l-0.6-8.4c0-0.3,0.2-0.6,0.6-0.6L54.4,16.2z"/>
		</g>
		<g>
			<path class="st0" d="M65,20l0.3,4.3l8.3-0.6c0.4,0,0.7,0.2,0.7,0.5l0.3,3.5c0,0.3-0.2,0.6-0.6,0.6L65.6,29l0.3,4.3l10.1-0.8
				c0.4,0,0.7,0.2,0.8,0.5l0.3,3.6c0,0.3-0.2,0.6-0.7,0.6l-14.4,1.1c-0.4,0-0.7-0.2-0.7-0.5l-1.6-21.6c0-0.3,0.2-0.6,0.6-0.6
				l14.1-1.1c0.4,0,0.7,0.2,0.7,0.5l0.3,3.5c0,0.3-0.2,0.6-0.6,0.6L65,20z"/>
		</g>
	</g>
	<g>
		<path class="st0" d="M110.1,5.7c0.7,0,1.2,0.6,1,1.2L97.4,42.6c-0.3,0.8-1.6,0.8-2,0L81.7,6.9c-0.3-0.6,0.3-1.2,1-1.2H110.1z
			 M96.5,25.7l4.6-13.2h-9.3L96.5,25.7z"/>
	</g>
	<g>
		<path class="st0" d="M113.5,18.8c0-7.4,6.2-13.5,13.9-13.5c7.6,0,13.8,6.1,13.8,13.5c0,7.5-6.2,13.4-13.8,13.4
			C119.7,32.3,113.5,26.3,113.5,18.8z M139.6,40.9c0,0.4-0.5,0.9-1.1,0.9h-22.6c-0.7,0-1.1-0.5-1.1-0.9v-5.7c0-0.5,0.4-0.9,1.1-0.9
			h22.6c0.7,0,1.1,0.5,1.1,0.9V40.9z M121.4,18.8c0,3.5,2.7,6,6,6s5.9-2.5,5.9-6c0-3.4-2.6-6.1-5.9-6.1S121.4,15.4,121.4,18.8z"/>
	</g>
	<g>
		<path class="st0" d="M147.4,7c0-0.5,0.5-0.9,1.1-0.9h5.6c0.7,0,1.1,0.4,1.1,0.9v33.9c0,0.4-0.4,0.9-1.1,0.9h-5.6
			c-0.6,0-1.1-0.5-1.1-0.9V7z"/>
	</g>
	<g>
		<path class="st0" d="M168.7,5.7c8.8,0,21.2,2,21.2,18c0,15.4-12.2,18-21.2,18H163c-0.6,0-1.1-0.5-1.1-0.9V6.6
			c0-0.5,0.5-0.9,1.1-0.9H168.7z M169.8,34.2c4.2,0.2,12.1-0.5,12.1-10.5c0-7.6-5.2-10.6-12.1-10.5V34.2z"/>
	</g>
	<g>
		<path class="st0" d="M40.4,58.8c0,0.3-0.4,0.7-0.9,0.7h-5V83c0,0.3-0.4,0.7-0.9,0.7h-4.7c-0.5,0-0.9-0.4-0.9-0.7V59.6h-5.1
			c-0.5,0-0.9-0.4-0.9-0.7v-4.3c0-0.4,0.4-0.8,0.9-0.8h16.7c0.6,0,0.9,0.4,0.9,0.8V58.8z"/>
	</g>
	<g>
		<path class="st0" d="M65.8,53.7c0.6,0,0.9,0.4,0.9,0.8V83c0,0.3-0.4,0.7-0.9,0.7h-4.7c-0.5,0-0.9-0.4-0.9-0.7V71.8h-10V83
			c0,0.3-0.4,0.7-0.9,0.7h-4.7c-0.5,0-0.9-0.4-0.9-0.7V54.5c0-0.4,0.4-0.8,0.9-0.8h4.7c0.6,0,0.9,0.4,0.9,0.8v11h10v-11
			c0-0.4,0.4-0.8,0.9-0.8H65.8z"/>
	</g>
	<g>
		<path class="st0" d="M79.4,59.9v5.7h11c0.5,0,0.9,0.4,0.9,0.8V71c0,0.3-0.3,0.7-0.9,0.7h-11v5.7h13.3c0.6,0,0.9,0.4,0.9,0.8V83
			c0,0.3-0.4,0.7-0.9,0.7h-19c-0.6,0-0.9-0.4-0.9-0.7V54.5c0-0.4,0.3-0.8,0.9-0.8h18.6c0.5,0,0.9,0.4,0.9,0.8v4.6
			c0,0.4-0.4,0.8-0.9,0.8H79.4z"/>
	</g>
	<g>
		<path class="st0" d="M111.7,80.3h-8.6l-1.1,3v0c-0.1,0.3-0.5,0.5-0.9,0.5h-5.1c-0.7,0-1-0.5-0.8-1c3.7-9.4,7.7-19.7,11.3-29.1
			c0.3-0.6,1.4-0.6,1.7,0l11.3,29.1c0.2,0.5-0.1,1-0.8,1h-5.2c-0.3,0-0.7-0.2-0.8-0.5v0L111.7,80.3z M104.9,75.1h5.1l-1.5-4.4
			c-0.4-1.4-0.8-2.7-1-4.1c-0.3,1.6-0.6,2.9-1.1,4.1L104.9,75.1z"/>
	</g>
	<g>
		<path class="st0" d="M138.4,58.8c0,0.3-0.4,0.7-0.9,0.7h-5V83c0,0.3-0.4,0.7-0.9,0.7h-4.7c-0.5,0-0.9-0.4-0.9-0.7V59.6h-5.1
			c-0.5,0-0.9-0.4-0.9-0.7v-4.3c0-0.4,0.4-0.8,0.9-0.8h16.7c0.6,0,0.9,0.4,0.9,0.8V58.8z"/>
	</g>
	<g>
		<path class="st0" d="M150.2,71.8h-2.2V83c0,0.3-0.4,0.7-0.9,0.7h-4.7c-0.5,0-0.9-0.4-0.9-0.7V54.8c0-0.4,0.3-0.7,0.9-0.7h9.3
			c1.8,0,10.3,0.1,10.3,8.9c0,4.4-2.3,6.8-5.2,8c0.9,1.9,1.9,4.1,2.8,6l2.6,5.7c0.2,0.5-0.1,1-0.8,1h-5.1c-0.3,0-0.7-0.3-0.8-0.5
			L150.2,71.8z M148.1,66.2h3.7c1.1,0,3.8-0.2,3.8-3c0-2.7-3-3-3.8-3h-3.7V66.2z"/>
	</g>
	<g>
		<path class="st0" d="M173.7,59.9v5.7h11c0.5,0,0.9,0.4,0.9,0.8V71c0,0.3-0.3,0.7-0.9,0.7h-11v5.7H187c0.6,0,0.9,0.4,0.9,0.8V83
			c0,0.3-0.4,0.7-0.9,0.7h-19c-0.6,0-0.9-0.4-0.9-0.7V54.5c0-0.4,0.3-0.8,0.9-0.8h18.6c0.5,0,0.9,0.4,0.9,0.8v4.6
			c0,0.4-0.4,0.8-0.9,0.8H173.7z"/>
	</g>
</g>
<g>
	<path class="st0" d="M225.6,49.6c0,4.4-4.6,4.4-5,4.4h-1.8v5.3c0,0.2-0.1,0.4-0.4,0.4h-2.3c-0.3,0-0.4-0.2-0.4-0.4V45.5
		c0-0.2,0.2-0.4,0.4-0.4h4.6C221.2,45.1,225.6,45.2,225.6,49.6z M222.5,49.6c0-1.4-1.6-1.4-1.9-1.4h-1.8V51h1.8
		C220.9,51,222.5,50.9,222.5,49.6z"/>
	<path class="st0" d="M235.5,56.6c0.3,0,0.4,0.2,0.4,0.4v2.3c0,0.2-0.2,0.4-0.4,0.4h-7.3c-0.3,0-0.4-0.2-0.4-0.4V45.5
		c0-0.2,0.2-0.4,0.4-0.4h2.3c0.3,0,0.4,0.2,0.4,0.4v11.1H235.5z"/>
	<path class="st0" d="M240.5,48.1V51h5.3c0.3,0,0.4,0.2,0.4,0.4v2.2c0,0.2-0.1,0.4-0.4,0.4h-5.3v2.8h6.4c0.3,0,0.5,0.2,0.5,0.4v2.2
		c0,0.2-0.2,0.4-0.5,0.4h-9.1c-0.3,0-0.4-0.2-0.4-0.4V45.5c0-0.2,0.2-0.4,0.4-0.4h9.1c0.3,0,0.5,0.2,0.5,0.4v2.2
		c0,0.2-0.2,0.4-0.5,0.4H240.5z"/>
	<path class="st0" d="M256.3,57.9h-4.1l-0.5,1.4v0c0,0.1-0.2,0.3-0.4,0.3h-2.5c-0.4,0-0.5-0.3-0.4-0.5c1.8-4.6,3.7-9.6,5.5-14.2
		c0.1-0.3,0.7-0.3,0.8,0l5.5,14.2c0.1,0.3-0.1,0.5-0.4,0.5h-2.5c-0.2,0-0.4-0.1-0.4-0.3v0L256.3,57.9z M253,55.4h2.5l-0.7-2.2
		c-0.2-0.7-0.4-1.3-0.5-2c-0.1,0.8-0.3,1.4-0.5,2L253,55.4z"/>
	<path class="st0" d="M261.1,55.5c0-0.2,0.2-0.3,0.4-0.3h2.3c0.2,0,0.4,0.1,0.4,0.3c0,0.9,0.7,1.3,1.5,1.3c0.8,0,1.5-0.5,1.5-1.4
		c0-0.9-0.9-1.5-1.5-1.5c-0.1,0-1.2,0-2.2-0.5c-1.6-0.8-2.5-2.2-2.5-3.9c0-2.8,2.3-4.5,4.7-4.5c2.6,0,4.6,1.7,4.6,4.3
		c0,0.2-0.2,0.4-0.4,0.4h-2.3c-0.2,0-0.4-0.2-0.4-0.4c0-0.9-0.7-1.3-1.5-1.3c-0.9,0-1.5,0.5-1.5,1.5c0,0.9,0.7,1.5,1.5,1.5
		c0.1,0,1.2,0,2.2,0.5c1.6,0.7,2.5,2.2,2.5,4c0,2.8-2.3,4.4-4.7,4.4C263.2,59.8,261.2,58.3,261.1,55.5z"/>
	<path class="st0" d="M276.2,48.1V51h5.3c0.3,0,0.4,0.2,0.4,0.4v2.2c0,0.2-0.1,0.4-0.4,0.4h-5.3v2.8h6.4c0.3,0,0.5,0.2,0.5,0.4v2.2
		c0,0.2-0.2,0.4-0.5,0.4h-9.1c-0.3,0-0.4-0.2-0.4-0.4V45.5c0-0.2,0.2-0.4,0.4-0.4h9.1c0.3,0,0.5,0.2,0.5,0.4v2.2
		c0,0.2-0.2,0.4-0.5,0.4H276.2z"/>
	<path class="st0" d="M302.6,49.6c0,4.4-4.6,4.4-5,4.4h-1.8v5.3c0,0.2-0.1,0.4-0.4,0.4H293c-0.3,0-0.4-0.2-0.4-0.4V45.5
		c0-0.2,0.2-0.4,0.4-0.4h4.6C298.1,45.1,302.6,45.2,302.6,49.6z M299.4,49.6c0-1.4-1.6-1.4-1.9-1.4h-1.8V51h1.8
		C297.9,51,299.4,50.9,299.4,49.6z"/>
	<path class="st0" d="M304.6,45.5c0-0.2,0.2-0.4,0.4-0.4h2.3c0.3,0,0.4,0.2,0.4,0.4v13.8c0,0.2-0.2,0.4-0.4,0.4h-2.3
		c-0.3,0-0.4-0.2-0.4-0.4V45.5z"/>
	<path class="st0" d="M320.4,55.6c0.1-0.1,0.4-0.1,0.6,0l1.6,1.6c0.1,0.1,0.1,0.4,0,0.6c-1.3,1.3-3.1,2.1-5.1,2.1
		c-4,0-7.3-2.9-7.3-7.4c0-4.3,3-7.5,7.3-7.5c2,0,3.9,0.8,5.1,2.1c0.1,0.1,0.1,0.4,0,0.5l-1.6,1.6c-0.2,0.1-0.4,0.1-0.6,0
		c-0.8-0.8-1.8-1.3-3-1.3c-2.6,0-4.1,2-4.1,4.5c0,2.7,1.8,4.4,4.1,4.4C318.5,56.8,319.6,56.4,320.4,55.6z"/>
	<path class="st0" d="M331.2,52.5l5.5,6.5c0.3,0.3,0,0.6-0.3,0.6h-3c-0.1,0-0.3-0.1-0.4-0.1l-3.9-4.8c-0.1,0.1-0.1,0.1-0.2,0.3v0
		c-0.2,0.3-0.4,0.5-0.6,0.7v3.7c0,0.2-0.2,0.4-0.4,0.4h-2.3c-0.3,0-0.5-0.2-0.5-0.4V45.5c0-0.2,0.2-0.4,0.5-0.4h2.3
		c0.3,0,0.4,0.2,0.4,0.4v5.9l4.9-6.1c0,0,0.3-0.1,0.3-0.1h2.9c0.4,0,0.6,0.3,0.3,0.6L331.2,52.5z"/>
	<path class="st0" d="M227.3,70.3c0.4,0,0.6,0.3,0.3,0.6h0l-5,7.2v6.4c0,0.2-0.2,0.4-0.4,0.4h-2.3c-0.3,0-0.4-0.2-0.4-0.4V78
		l-1.8-2.5l-3.3-4.7h0c-0.2-0.3,0-0.6,0.4-0.6h2.8c0.1,0,0.3,0,0.4,0.1c1,1.5,2.1,3,3.1,4.5l3.1-4.5c0.1-0.1,0.3-0.1,0.3-0.1H227.3z
		"/>
	<path class="st0" d="M242.4,77.5c0,3.7-2.4,7.5-7.2,7.5c-4.8,0-7.2-3.7-7.2-7.5c0-3.7,2.4-7.4,7.2-7.4
		C240,70,242.4,73.8,242.4,77.5z M239.2,77.5c0-2.3-1.4-4.5-4-4.5c-2.7,0-4,2.3-4,4.5c0,2.2,1.3,4.5,4,4.5
		C237.8,82,239.2,79.8,239.2,77.5z"/>
	<path class="st0" d="M245.2,80v-9.3c0-0.2,0.2-0.4,0.4-0.4h2.3c0.3,0,0.4,0.2,0.4,0.4V80c0.2,1.2,1.2,2,2.4,2
		c1.2,0,2.4-0.6,2.4-1.9v-9.3c0-0.2,0.2-0.4,0.4-0.4h2.3c0.2,0,0.4,0.2,0.4,0.4V80c0,3.1-2.4,4.9-5.5,4.9
		C247.7,85,245.2,83,245.2,80z"/>
	<path class="st0" d="M263.7,78.9h-1.1v5.4c0,0.2-0.2,0.4-0.5,0.4h-2.3c-0.3,0-0.4-0.2-0.4-0.4V70.6c0-0.2,0.2-0.4,0.4-0.4h4.5
		c0.9,0,5,0,5,4.4c0,2.2-1.1,3.3-2.6,3.9c0.4,0.9,0.9,2,1.4,2.9l1.3,2.8c0.1,0.3,0,0.5-0.4,0.5h-2.5c-0.1,0-0.4-0.1-0.4-0.2
		L263.7,78.9z M262.6,76.2h1.8c0.5,0,1.9-0.1,1.9-1.5c0-1.3-1.5-1.5-1.9-1.5h-1.8V76.2z"/>
	<path class="st0" d="M278.7,80.6c0-0.2,0.2-0.3,0.4-0.3h2.3c0.2,0,0.4,0.1,0.4,0.3c0,0.9,0.7,1.3,1.5,1.3c0.8,0,1.5-0.5,1.5-1.4
		c0-0.9-0.9-1.5-1.5-1.5c-0.1,0-1.2,0-2.2-0.5c-1.6-0.8-2.5-2.2-2.5-3.9c0-2.8,2.3-4.5,4.7-4.5c2.6,0,4.6,1.7,4.6,4.3
		c0,0.2-0.2,0.4-0.4,0.4h-2.3c-0.2,0-0.4-0.2-0.4-0.4c0-0.9-0.7-1.3-1.5-1.3c-0.9,0-1.5,0.5-1.5,1.5c0,0.9,0.7,1.5,1.5,1.5
		c0.1,0,1.2,0,2.2,0.5c1.6,0.7,2.5,2.2,2.5,4c0,2.8-2.3,4.4-4.7,4.4C280.8,84.9,278.8,83.4,278.7,80.6z"/>
	<path class="st0" d="M293.7,73.2v2.9h5.3c0.3,0,0.4,0.2,0.4,0.4v2.2c0,0.2-0.1,0.4-0.4,0.4h-5.3v2.8h6.4c0.3,0,0.5,0.2,0.5,0.4v2.2
		c0,0.2-0.2,0.4-0.5,0.4H291c-0.3,0-0.4-0.2-0.4-0.4V70.6c0-0.2,0.2-0.4,0.4-0.4h9.1c0.3,0,0.5,0.2,0.5,0.4v2.2
		c0,0.2-0.2,0.4-0.5,0.4H293.7z"/>
	<path class="st0" d="M309.5,83.1h-4.1l-0.5,1.4v0c0,0.1-0.2,0.3-0.4,0.3h-2.5c-0.4,0-0.5-0.3-0.4-0.5c1.8-4.6,3.7-9.6,5.5-14.2
		c0.1-0.3,0.7-0.3,0.8,0l5.5,14.2c0.1,0.3-0.1,0.5-0.4,0.5h-2.5c-0.2,0-0.4-0.1-0.4-0.3v0L309.5,83.1z M306.2,80.6h2.5l-0.7-2.2
		c-0.2-0.7-0.4-1.3-0.5-2c-0.1,0.8-0.3,1.4-0.5,2L306.2,80.6z"/>
	<path class="st0" d="M321.4,72.8c0,0.2-0.2,0.3-0.4,0.3h-2.4v11.2c0,0.2-0.1,0.4-0.4,0.4h-2.3c-0.3,0-0.4-0.2-0.4-0.4V73.2H313
		c-0.3,0-0.4-0.1-0.4-0.3v-2.1c0-0.2,0.2-0.4,0.4-0.4h8c0.3,0,0.4,0.2,0.4,0.4V72.8z"/>
</g>
<g>
	<rect x="202.2" y="6.9" class="st0" width="2" height="79.2"/>
</g>
</svg>
